<svg xmlns="http://www.w3.org/2000/svg" xmlns:xlink="http://www.w3.org/1999/xlink" enable-background="new 0 0 128 128" viewBox="0 0 128 128"><linearGradient id="a" x1="4.111" x2="123.89" y1="64" y2="64" gradientUnits="userSpaceOnUse"><stop offset=".001" stop-color="#81d4fa"/><stop offset="1" stop-color="#29b6f6"/></linearGradient><linearGradient id="b" x1="63.599" x2="63.599" y1="123.89" y2="36.003" gradientUnits="userSpaceOnUse"><stop offset="0" stop-color="#81d4fa"/><stop offset=".221" stop-color="#7dd3fa"/><stop offset=".431" stop-color="#72cff9"/><stop offset=".638" stop-color="#5ec8f8"/><stop offset=".841" stop-color="#44bff7"/><stop offset="1" stop-color="#29b6f6"/></linearGradient><linearGradient id="c" x1="93.897" x2="93.897" y1="123.91" y2="36" gradientUnits="userSpaceOnUse"><stop offset="0" stop-color="#039be5"/><stop offset=".369" stop-color="#0398e2"/><stop offset=".638" stop-color="#0390d9"/><stop offset=".874" stop-color="#0282c9"/><stop offset="1" stop-color="#0277bd"/></linearGradient><linearGradient id="d" x1="33.944" x2="33.944" y1="123.91" y2="35.968" gradientUnits="userSpaceOnUse"><stop offset="0" stop-color="#29b6f6"/><stop offset=".331" stop-color="#25b3f4"/><stop offset=".646" stop-color="#1aabef"/><stop offset=".954" stop-color="#079ee7"/><stop offset="1" stop-color="#039be5"/></linearGradient><linearGradient id="e" x1="29.51" x2="21.783" y1="5.457" y2="36.366" gradientUnits="userSpaceOnUse"><stop offset=".005" stop-color="#b3e5fc"/><stop offset="1" stop-color="#4fc3f7"/></linearGradient><linearGradient id="f"><stop offset=".009" stop-color="#81d4fa"/><stop offset="1" stop-color="#29b6f6"/></linearGradient><linearGradient id="g" x1="105.87" x2="105.87" y1="7.06" y2="37.027" gradientUnits="userSpaceOnUse" xlink:href="#f"/><linearGradient id="h" x1="63.644" x2="63.644" y1="6.738" y2="35.715" gradientUnits="userSpaceOnUse"><stop offset="0" stop-color="#e1f5fe"/><stop offset=".275" stop-color="#d3f0fd"/><stop offset="1" stop-color="#b3e5fc"/></linearGradient><linearGradient id="i" x1="47.868" x2="47.868" y1="4.484" y2="37.34" gradientUnits="userSpaceOnUse" xlink:href="#f"/><linearGradient id="j" x1="63.736" x2="96" y1="20.023" y2="20.023" gradientUnits="userSpaceOnUse"><stop offset=".011" stop-color="#4fc3f7"/><stop offset="1" stop-color="#29b6f6"/></linearGradient><path fill="#81d4fa" d="m63.85 123.84 60.1-87.8.05-.02v-.03l-27.96-31.99h-64.03l-28.01 31.93v.03l.03.07 59.42 87.45.32.44.07-.09-.22-.83z"/><path fill="url(#a)" d="m63.79 123.93-59.68-87.9 27.9-31.96h64.03l27.85 31.96z"/><path fill="none" d="m64 4-.05.07h.1z"/><path fill="url(#b)" d="m63.78 123.89 23.77-87.89-47.9.05z"/><path fill="#81d4fa" d="m87.55 36h.39l-.28-.38z"/><path fill="url(#c)" d="m124 36.02-36.42-.02-23.79 87.91 60.21-87.88z"/><path fill="url(#d)" d="m39.86 36.59-.86 1.16.86-1.16-.17-.61-35.52-.01-.06.06 59.67 87.88z"/><path fill="url(#e)" d="m40 36-8-31.9-28.26 31.95z"/><path fill="url(#g)" d="m87.74 36 8-31.9 28.26 31.95z"/><path fill="url(#h)" d="m39.74 36 24-31.96 23.81 31.96z"/><path fill="url(#i)" d="m64 4.04-24 32.01-8.26-32.05z"/><path fill="url(#j)" d="m63.74 4.04 24 32.01 8.26-32.05z"/><path fill="#424242" d="m94.67 7 25.53 29.2-56.42 82.41-56.02-82.42 25.61-29.19zm1.37-3h-64.03l-28.01 31.93v.03l.03.07 59.74 87.9 60.18-87.9.05-.02v-.03z" opacity=".2"/></svg>