<svg xmlns="http://www.w3.org/2000/svg" style="cursor:move" width="1920" height="857"><g transform="translate(-55.946917456132724,-8.842033991185588) scale(1.052631154709438)"><path class="link" style="stroke-width:2px;stroke-opacity:1;stroke:#505050;fill:none" d="M816,550.5, 896,528"/><path class="link" style="stroke-width:2px;stroke-opacity:1;stroke:#505050;fill:none" d="M816,595.5, 896,528"/><path class="link" style="stroke-width:2px;stroke-opacity:1;stroke:#505050;fill:none" d="M816,640.5, 896,528"/><path class="link" style="stroke-width:2px;stroke-opacity:1;stroke:#505050;fill:none" d="M816,550.5, 896,573"/><path class="link" style="stroke-width:2px;stroke-opacity:1;stroke:#505050;fill:none" d="M816,595.5, 896,573"/><path class="link" style="stroke-width:2px;stroke-opacity:1;stroke:#505050;fill:none" d="M816,640.5, 896,573"/><path class="link" style="stroke-width:2px;stroke-opacity:1;stroke:#505050;fill:none" d="M896,528, 976,573"/><path class="link" style="stroke-width:2px;stroke-opacity:1;stroke:#505050;fill:none" d="M896,573, 976,573"/><path class="link" style="stroke-width:2px;stroke-opacity:1;stroke:#505050;fill:none" d="M816,550.5, 896,618"/><path class="link" style="stroke-width:2px;stroke-opacity:1;stroke:#505050;fill:none" d="M816,595.5, 896,618"/><path class="link" style="stroke-width:2px;stroke-opacity:1;stroke:#505050;fill:none" d="M816,640.5, 896,618"/><path class="link" style="stroke-width:2px;stroke-opacity:1;stroke:#505050;fill:none" d="M896,618, 976,573"/><path class="link" style="stroke-width:2px;stroke-opacity:1;stroke:#505050;fill:none" d="M816,550.5, 896,663"/><path class="link" style="stroke-width:2px;stroke-opacity:1;stroke:#505050;fill:none" d="M816,595.5, 896,663"/><path class="link" style="stroke-width:2px;stroke-opacity:1;stroke:#505050;fill:none" d="M816,640.5, 896,663"/><path class="link" style="stroke-width:2px;stroke-opacity:1;stroke:#505050;fill:none" d="M896,663, 976,573"/><path class="link" style="stroke-width:2px;stroke-opacity:1;stroke:#505050;fill:none" d="M896,528, 976,618"/><path class="link" style="stroke-width:2px;stroke-opacity:1;stroke:#505050;fill:none" d="M896,573, 976,618"/><path class="link" style="stroke-width:2px;stroke-opacity:1;stroke:#505050;fill:none" d="M896,618, 976,618"/><path class="link" style="stroke-width:2px;stroke-opacity:1;stroke:#505050;fill:none" d="M896,663, 976,618"/><circle id="0_0" cx="816" cy="550.5" r="16" class="node" style="fill:#fff;stroke:#333"/><circle id="0_1" cx="816" cy="595.5" r="16" class="node" style="fill:#fff;stroke:#333"/><circle id="0_2" cx="816" cy="640.5" r="16" class="node" style="fill:#fff;stroke:#333"/><circle id="1_0" cx="896" cy="528" r="16" class="node" style="fill:#fff;stroke:#333"/><circle id="1_1" cx="896" cy="573" r="16" class="node" style="fill:#fff;stroke:#333"/><circle id="1_2" cx="896" cy="618" r="16" class="node" style="fill:#fff;stroke:#333"/><circle id="1_3" cx="896" cy="663" r="16" class="node" style="fill:#fff;stroke:#333"/><circle id="2_0" cx="976" cy="573" r="16" class="node" style="fill:#fff;stroke:#333"/><circle id="2_1" cx="976" cy="618" r="16" class="node" style="fill:#fff;stroke:#333"/></g><defs><marker id="arrow" markerHeight="7" markerWidth="7" orient="auto" refX="56.8" viewBox="0 -5 10 10"><path d="M0,-5L10,0L0,5" style="stroke:#505050;fill:#505050"/></marker></defs></svg>